<svg width="16" height="17" viewBox="0 0 16 17" fill="none" xmlns="http://www.w3.org/2000/svg">
<path d="M12.1484 12.4844L9.52344 11.3594C9.45312 11.3359 9.38281 11.3125 9.28906 11.3125C9.125 11.3125 8.96094 11.4062 8.86719 11.5234L7.69531 12.9531C5.86719 12.0859 4.41406 10.6328 3.54688 8.80469L4.97656 7.63281C5.09375 7.53906 5.1875 7.375 5.1875 7.1875C5.1875 7.11719 5.16406 7.04688 5.14062 6.97656L4.01562 4.35156C3.92188 4.14062 3.71094 4 3.47656 4C3.45312 4 3.40625 4.02344 3.35938 4.02344L0.921875 4.58594C0.664062 4.65625 0.5 4.86719 0.5 5.125C0.5 11.1484 5.35156 16 11.375 16C11.6328 16 11.8438 15.8359 11.9141 15.5781L12.4766 13.1406C12.4766 13.0938 12.4766 13.0469 12.4766 13.0234C12.4766 12.7891 12.3359 12.5781 12.1484 12.4844Z" fill="#39CAE8"/>
<circle cx="9" cy="7.5" r="6.5" stroke="#39CAE8" stroke-width="0.962963"/>
</svg>
