<svg width="13" height="15" viewBox="0 0 13 15" fill="none" xmlns="http://www.w3.org/2000/svg">
<path d="M12.3125 9.0625C12.3125 7.94141 11.957 6.875 11.3828 5.97266H11.4102L12.2031 5.15234C12.3398 5.04297 12.3398 4.82422 12.2031 4.6875L11.4375 3.92188C11.3008 3.78516 11.082 3.78516 10.9727 3.92188L10.207 4.6875C9.44141 4.05859 8.51172 3.62109 7.5 3.45703V2.5H8.26562C8.42969 2.5 8.59375 2.36328 8.59375 2.17188V1.07812C8.59375 0.914062 8.42969 0.75 8.26562 0.75H4.98438C4.79297 0.75 4.65625 0.914062 4.65625 1.07812V2.17188C4.65625 2.36328 4.79297 2.5 4.98438 2.5H5.75V3.45703C3.01562 3.86719 0.9375 6.21875 0.9375 9.0625C0.9375 12.207 3.48047 14.75 6.625 14.75C9.74219 14.75 12.3125 12.207 12.3125 9.0625ZM7.5 10.0469C7.5 10.2383 7.33594 10.375 7.17188 10.375H6.07812C5.88672 10.375 5.75 10.2383 5.75 10.0469V5.91797C5.75 5.72656 5.88672 5.58984 6.07812 5.58984H7.17188C7.33594 5.58984 7.5 5.72656 7.5 5.91797V10.0469Z" fill="#9947DC"/>
</svg>
