<svg width="22" height="17" viewBox="0 0 22 17" fill="none" xmlns="http://www.w3.org/2000/svg">
<path d="M19.7031 12.8555C20.6523 11.9062 21.25 10.7109 21.25 9.375C21.25 6.5625 18.543 4.24219 15.0273 3.85547C13.9375 1.81641 11.3359 0.375 8.3125 0.375C4.26953 0.375 1 2.90625 1 6C1 7.30078 1.5625 8.49609 2.54688 9.48047C1.98438 10.5352 1.21094 11.3789 1.21094 11.4141C1 11.625 0.929688 11.9766 1.03516 12.293C1.17578 12.5742 1.45703 12.7852 1.80859 12.7852C3.67188 12.7852 5.18359 12.0469 6.20312 11.4141C6.51953 11.4844 6.87109 11.5195 7.1875 11.5898C8.3125 13.5938 10.8789 15 13.9375 15C14.6406 15 15.3438 14.9297 16.0117 14.7891C17.0312 15.4219 18.543 16.125 20.4414 16.125C20.7578 16.125 21.0391 15.9492 21.1797 15.6328C21.2852 15.3516 21.25 15 21.0039 14.7539C21.0039 14.7539 20.2305 13.9102 19.7031 12.8555ZM5.88672 9.58594L5.28906 9.97266C4.79688 10.3242 4.26953 10.5703 3.77734 10.7461C3.84766 10.5703 3.95312 10.3945 4.05859 10.2188L4.58594 9.12891L3.70703 8.25C3.25 7.79297 2.6875 7.01953 2.6875 6C2.6875 3.89062 5.25391 2.0625 8.3125 2.0625C11.3359 2.0625 13.9375 3.89062 13.9375 6C13.9375 8.14453 11.3359 9.9375 8.3125 9.9375C7.71484 9.9375 7.15234 9.90234 6.58984 9.76172L5.88672 9.58594ZM18.5078 11.625L17.6289 12.5039L18.1914 13.5938C18.2617 13.7695 18.3672 13.9453 18.4727 14.1211C17.9453 13.9453 17.4531 13.6641 16.9609 13.3477L16.3281 12.9609L15.6602 13.1367C15.0977 13.2773 14.5 13.3125 13.9375 13.3125C12.0391 13.3125 10.3164 12.6094 9.29688 11.5898C12.8828 11.2031 15.625 8.84766 15.625 6C15.625 5.89453 15.5898 5.78906 15.5898 5.64844C17.8398 6.17578 19.5625 7.65234 19.5625 9.375C19.5625 10.3945 18.9648 11.168 18.5078 11.625Z" fill="white"/>
</svg>
