<svg width="26" height="20" viewBox="0 0 26 20" fill="none" xmlns="http://www.w3.org/2000/svg">
<path d="M7.54519 5.72852C8.56791 5.72852 9.41532 6.57592 9.41532 7.59864C9.41532 8.65059 8.56791 9.46877 7.54519 9.46877C6.49324 9.46877 5.67506 8.65059 5.67506 7.59864C5.67506 6.57592 6.49324 5.72852 7.54519 5.72852ZM10.8179 13.4657C10.8179 13.7871 10.5257 14.0208 10.1458 14.0208H4.91532C4.56467 14.0208 4.27246 13.7871 4.27246 13.4657V12.9105C4.27246 11.9754 5.14908 11.2157 6.23025 11.2157H6.37636C6.72701 11.391 7.10688 11.4494 7.54519 11.4494C7.95428 11.4494 8.33415 11.391 8.6848 11.2157H8.8309C9.91207 11.2157 10.8179 11.9754 10.8179 12.9105V13.4657Z" stroke="#4B545D" stroke-width="1.4"/>
<path d="M12.6925 11.2626C12.9882 11.2626 13.2628 11.2204 13.5162 11.0937H13.6218C14.4033 11.0937 15.058 11.6428 15.058 12.3187V12.72C15.058 12.9523 14.8468 13.1213 14.5723 13.1213H12.8443M12.6925 6.74463C13.4318 6.74463 14.0443 7.35713 14.0443 8.09635C14.0443 8.85669 13.4318 9.44807 12.6925 9.44807C11.9322 9.44807 11.3408 8.85669 11.3408 8.09635C11.3408 7.35713 11.9322 6.74463 12.6925 6.74463Z" stroke="#4B545D" stroke-width="1.2" stroke-linecap="round"/>
<rect x="1" y="1" width="24" height="18" rx="2" stroke="#4B545D" stroke-width="1.4"/>
<path d="M17.3633 9.45459H20.636" stroke="#4B545D" stroke-width="1.4" stroke-linecap="round"/>
<path d="M17.3633 12.1816H21.7269" stroke="#4B545D" stroke-width="1.4" stroke-linecap="round"/>
</svg>
