<svg width="240" height="240" viewBox="0 0 240 240" fill="none" xmlns="http://www.w3.org/2000/svg">
<path d="M166.814 190.77C154.2 199.114 139.585 203.935 124.482 204.734C109.379 205.533 94.3374 202.281 80.9136 195.314C67.4897 188.348 56.1718 177.92 48.1315 165.11C40.0911 152.301 35.6206 137.575 35.1826 122.457C34.7446 107.34 38.3551 92.3797 45.6403 79.126C52.9255 65.8724 63.6207 54.8068 76.6187 47.0746C89.6167 39.3425 104.445 35.2249 119.569 35.1481C134.693 35.0713 149.562 39.038 162.638 46.6377L148.994 70.1136C140.102 64.9458 129.991 62.2484 119.707 62.3006C109.423 62.3529 99.3393 65.1528 90.5007 70.4107C81.662 75.6685 74.3893 83.1932 69.4353 92.2056C64.4814 101.218 62.0262 111.391 62.3241 121.671C62.6219 131.951 65.6619 141.964 71.1293 150.675C76.5968 159.385 84.2929 166.476 93.4211 171.214C102.549 175.951 112.778 178.162 123.048 177.619C133.318 177.076 143.256 173.798 151.833 168.124L166.814 190.77Z" fill="#5866D3"/>
<path d="M166.144 191.209C152.568 200.006 136.761 204.739 120.585 204.851C104.409 204.962 88.5381 200.447 74.8427 191.839C61.1473 183.23 50.198 170.886 43.2852 156.261C36.3725 141.636 33.7842 125.339 35.8255 109.292L62.7614 112.719C61.3733 123.631 63.1333 134.712 67.834 144.657C72.5347 154.602 79.9802 162.996 89.293 168.85C98.6059 174.704 109.398 177.774 120.398 177.698C131.397 177.623 142.146 174.404 151.378 168.422L166.144 191.209Z" fill="#F5D06F"/>
<path d="M204.769 123.753C204.135 138.074 199.884 152.001 192.411 164.233C184.938 176.466 174.488 186.607 162.037 193.708L148.585 170.122C157.052 165.292 164.158 158.397 169.239 150.079C174.321 141.76 177.212 132.29 177.643 122.552L204.769 123.753Z" fill="#9947DC"/>
<path d="M169.163 189.159C152.736 200.836 132.689 206.286 112.61 204.53C92.5318 202.775 73.7338 193.93 59.582 179.579L78.9157 160.514C88.5389 170.272 101.322 176.287 114.975 177.481C128.628 178.674 142.261 174.969 153.431 167.028L169.163 189.159Z" fill="#F46A78"/>
<path d="M137.051 36.878C158.113 41.1984 176.75 53.3535 189.194 70.8866C201.639 88.4197 206.964 110.023 204.093 131.332L177.183 127.706C179.136 113.216 175.515 98.5254 167.052 86.6029C158.59 74.6804 145.917 66.4149 131.594 63.477L137.051 36.878Z" fill="#49C185"/>
</svg>
