<svg width="26" height="26" viewBox="0 0 26 26" fill="none" xmlns="http://www.w3.org/2000/svg">
<path d="M15.342 13.1249C14.7922 12.439 13.9474 11.9999 13 11.9999C11.3431 11.9999 10 13.343 10 14.9999C10 16.6567 11.3431 17.9999 13 17.9999C13.9474 17.9999 14.7922 17.5607 15.342 16.8749C15.7537 16.3613 16 15.7093 16 14.9999C16 14.2904 15.7537 13.6385 15.342 13.1249ZM15.342 13.1249L19 9.49988" stroke="#3B74A5" stroke-width="1.44455" stroke-linecap="round"/>
<path d="M22.3681 22.5C24.0149 20.4456 25 17.8378 25 15C25 8.37258 19.6274 3 13 3C6.37258 3 1 8.37258 1 15C1 17.8378 1.98508 20.4456 3.63194 22.5" stroke="#3B74A5" stroke-width="1.44455" stroke-linecap="round"/>
</svg>
