<svg width="20" height="21" viewBox="0 0 20 21" fill="none" xmlns="http://www.w3.org/2000/svg">
<path d="M19.6875 10.5C19.6484 5.14844 15.3125 0.8125 10 0.8125C7.38281 0.8125 5.03906 1.86719 3.28125 3.50781L1.36719 1.59375C0.976562 1.20312 0.3125 1.47656 0.3125 2.02344V7.6875C0.3125 8.03906 0.585938 8.3125 0.9375 8.3125H6.60156C7.14844 8.3125 7.42188 7.64844 7.03125 7.25781L5.03906 5.26562C6.32812 4.05469 8.08594 3.3125 10 3.3125C13.9453 3.3125 17.1875 6.55469 17.1875 10.5C17.1875 14.4844 13.9453 17.6875 10 17.6875C8.28125 17.6875 6.75781 17.1406 5.50781 16.1641C5.15625 15.8516 4.60938 15.8906 4.25781 16.2422L3.82812 16.6719C3.4375 17.0625 3.47656 17.7266 3.90625 18.0781C5.54688 19.4062 7.69531 20.2266 10 20.1875C15.3125 20.1875 19.6875 15.8516 19.6875 10.5ZM12.6172 13.5859L12.9688 13.0781C13.3203 12.6875 13.2422 12.1016 12.8125 11.7891L11.25 10.5391V6.4375C11.25 5.92969 10.8203 5.5 10.3125 5.5H9.6875C9.14062 5.5 8.75 5.92969 8.75 6.4375V11.75L11.2891 13.7422C11.6797 14.0547 12.2656 13.9766 12.6172 13.5859Z" fill="white"/>
</svg>
