<svg width="24" height="24" viewBox="0 0 24 24" fill="none" xmlns="http://www.w3.org/2000/svg">
<path d="M3.27588 1.48236H3.21266C1.99059 1.48236 0.999916 2.47304 0.999916 3.6951V20.4955C0.999916 21.7176 1.99059 22.7083 3.21266 22.7083H3.27588V1.48236Z" stroke="#4B545D" stroke-width="1.33913"/>
<path d="M20.8516 4.82458H22.3689C22.718 4.82458 23.0011 5.10764 23.0011 5.4568V7.10055C23.0011 7.44971 22.718 7.73276 22.3689 7.73276H20.8516V4.82458Z" stroke="#4B545D" stroke-width="1.33913"/>
<path d="M20.8516 10.6413H22.3689C22.718 10.6413 23.0011 10.9243 23.0011 11.2735V12.9172C23.0011 13.2664 22.718 13.5494 22.3689 13.5494H20.8516V10.6413Z" stroke="#4B545D" stroke-width="1.33913"/>
<path d="M20.8516 16.4577H22.3689C22.718 16.4577 23.0011 16.7408 23.0011 17.0899V18.7337C23.0011 19.0828 22.718 19.3659 22.3689 19.3659H20.8516V16.4577Z" stroke="#4B545D" stroke-width="1.33913"/>
<path d="M5.6875 1.48236V0.812794H5.01793V1.48236H5.6875ZM5.6875 22.7083H5.01793V23.3778H5.6875V22.7083ZM13.313 13.1972V12.5277H13.1549L13.0136 12.5984L13.313 13.1972ZM10.5931 13.1972L10.8925 12.5984L10.7511 12.5277H10.5931V13.1972ZM5.6875 2.15193H16.229V0.812794H5.6875V2.15193ZM6.35707 22.7083V1.48236H5.01793V22.7083H6.35707ZM16.229 22.0387H5.6875V23.3778H16.229V22.0387ZM17.7722 20.4955C17.7722 21.3478 17.0813 22.0387 16.229 22.0387V23.3778C17.8209 23.3778 19.1113 22.0874 19.1113 20.4955H17.7722ZM17.7722 3.6951V20.4955H19.1113V3.6951H17.7722ZM16.229 2.15193C17.0813 2.15193 17.7722 2.84283 17.7722 3.6951H19.1113C19.1113 2.10325 17.8209 0.812794 16.229 0.812794V2.15193ZM11.9702 7.40156C12.8055 7.40156 13.5042 8.10024 13.5042 8.93548H14.8433C14.8433 7.36066 13.5451 6.06243 11.9702 6.06243V7.40156ZM10.4363 8.93548C10.4363 8.0934 11.1074 7.40156 11.9702 7.40156V6.06243C10.3542 6.06243 9.09719 7.3675 9.09719 8.93548H10.4363ZM11.9702 10.4694C11.1006 10.4694 10.4363 9.80515 10.4363 8.93548H9.09719C9.09719 10.5447 10.361 11.8085 11.9702 11.8085V10.4694ZM13.5042 8.93548C13.5042 9.79835 12.8123 10.4694 11.9702 10.4694V11.8085C13.5382 11.8085 14.8433 10.5515 14.8433 8.93548H13.5042ZM15.1568 15.8483C15.1568 15.8393 15.1593 15.8256 15.1659 15.8125C15.1719 15.8003 15.1772 15.7968 15.1743 15.7992C15.1669 15.8052 15.1243 15.8329 15.0345 15.8329V17.172C15.7199 17.172 16.4959 16.7162 16.4959 15.8483H15.1568ZM15.1568 15.1941V15.8483H16.4959V15.1941H15.1568ZM13.4851 13.8668C14.4966 13.8668 15.1568 14.5611 15.1568 15.1941H16.4959C16.4959 13.6237 15.0215 12.5277 13.4851 12.5277V13.8668ZM13.313 13.8668H13.4851V12.5277H13.313V13.8668ZM11.9702 14.1422C12.5144 14.1422 13.075 14.0648 13.6124 13.7961L13.0136 12.5984C12.7246 12.7428 12.3901 12.8031 11.9702 12.8031V14.1422ZM10.2936 13.7961C10.8334 14.066 11.3954 14.1422 11.9702 14.1422V12.8031C11.5122 12.8031 11.1791 12.7416 10.8925 12.5984L10.2936 13.7961ZM10.4209 13.8668H10.5931V12.5277H10.4209V13.8668ZM8.78371 15.1941C8.78371 14.5494 9.42313 13.8668 10.4209 13.8668V12.5277C8.87093 12.5277 7.44458 13.6354 7.44458 15.1941H8.78371ZM8.78371 15.8483V15.1941H7.44458V15.8483H8.78371ZM8.87159 15.8329C8.81079 15.8329 8.77759 15.8123 8.76972 15.8057C8.76665 15.8031 8.77073 15.8056 8.77571 15.8158C8.78121 15.827 8.78371 15.8394 8.78371 15.8483H7.44458C7.44458 16.6989 8.19977 17.172 8.87159 17.172V15.8329ZM15.0345 15.8329H8.87159V17.172H15.0345V15.8329Z" fill="#4B545D"/>
</svg>
