<svg width="13" height="14" viewBox="0 0 13 14" fill="none" xmlns="http://www.w3.org/2000/svg">
<path d="M12.6191 9.81641L9.77539 8.59766C9.69922 8.57227 9.62305 8.54688 9.52148 8.54688C9.34375 8.54688 9.16602 8.64844 9.06445 8.77539L7.79492 10.3242C5.81445 9.38477 4.24023 7.81055 3.30078 5.83008L4.84961 4.56055C4.97656 4.45898 5.07812 4.28125 5.07812 4.07812C5.07812 4.00195 5.05273 3.92578 5.02734 3.84961L3.80859 1.00586C3.70703 0.777344 3.47852 0.625 3.22461 0.625C3.19922 0.625 3.14844 0.650391 3.09766 0.650391L0.457031 1.25977C0.177734 1.33594 0 1.56445 0 1.84375C0 8.36914 5.25586 13.625 11.7812 13.625C12.0605 13.625 12.2891 13.4473 12.3652 13.168L12.9746 10.5273C12.9746 10.4766 12.9746 10.4258 12.9746 10.4004C12.9746 10.1465 12.8223 9.91797 12.6191 9.81641Z" fill="#4B545D"/>
</svg>
