<svg width="26" height="26" viewBox="0 0 26 26" fill="none" xmlns="http://www.w3.org/2000/svg">
<path d="M4.28952 21.6704C2.81924 20.1712 1.76217 18.3169 1.22119 16.2879C1.89955 16.0285 2.48506 15.5725 2.9028 14.9784C3.32055 14.3843 3.55153 13.6791 3.56619 12.9529C3.58085 12.2268 3.37851 11.5128 2.98508 10.9023C2.59165 10.2918 2.02502 9.8126 1.35769 9.52597C1.60377 8.7405 1.92858 7.98191 2.32718 7.26174C2.9422 6.14917 3.7058 5.17016 4.58042 4.33731L4.62513 4.36203C5.16788 4.66229 5.77821 4.81926 6.39847 4.81812C7.01874 4.81698 7.62848 4.65777 8.17013 4.35553C8.71178 4.05328 9.16745 3.61797 9.49412 3.09069C9.8208 2.56342 10.0077 1.96159 10.0372 1.34202C11.9277 0.869792 13.9041 0.859379 15.7995 1.31166C15.7767 1.98459 15.9405 2.65071 16.2727 3.23634C16.605 3.82197 17.0928 4.30426 17.6821 4.62986C18.2713 4.95576 18.9392 5.1123 19.6118 5.08218C20.2844 5.05205 20.9356 4.83643 21.4933 4.45918C22.8845 5.82369 23.9269 7.50289 24.5325 9.355C24.0199 9.71194 23.6075 10.1945 23.3347 10.7564C23.062 11.3184 22.938 11.9409 22.9747 12.5645C23.0114 13.1881 23.2076 13.7918 23.5444 14.3178C23.8812 14.8439 24.3474 15.2747 24.8984 15.569C24.6512 16.7819 24.2202 17.9498 23.6204 19.0326C23.2143 19.7672 22.7431 20.4436 22.2186 21.0578C21.621 20.6452 20.9138 20.4202 20.1876 20.4118C19.4613 20.4033 18.7491 20.6117 18.142 21.0104C17.5349 21.409 17.0605 21.9797 16.7796 22.6495C16.4987 23.3192 16.424 24.0576 16.5651 24.77C14.5592 25.3911 12.4267 25.4822 10.3751 25.0345C10.5246 24.2757 10.4293 23.489 10.1029 22.7879C9.77658 22.0867 9.23601 21.5073 8.55915 21.1331C7.8823 20.759 7.10412 20.6094 6.33678 20.7059C5.56944 20.8025 4.85258 21.1402 4.28952 21.6704Z" stroke="#4B545D" stroke-width="1.59755" stroke-linejoin="round"/>
<path d="M10.9141 16.8734C11.4035 17.1439 11.9413 17.3154 12.4969 17.3781C13.0525 17.4407 13.615 17.3933 14.1523 17.2386C14.6896 17.0838 15.1912 16.8248 15.6284 16.4762C16.0656 16.1276 16.4298 15.6964 16.7003 15.207C16.9708 14.7177 17.1423 14.1798 17.205 13.6242C17.2676 13.0686 17.2202 12.5061 17.0655 11.9688C16.9107 11.4315 16.6517 10.9299 16.3031 10.4927C15.9545 10.0556 15.5232 9.69132 15.0339 9.42081C14.0456 8.8745 12.8808 8.74315 11.7957 9.05566C10.7105 9.36818 9.79401 10.099 9.24769 11.0872C8.70138 12.0755 8.57003 13.2403 8.88254 14.3255C9.19505 15.4106 9.92583 16.3271 10.9141 16.8734Z" stroke="#4B545D" stroke-width="1.59755" stroke-linejoin="round"/>
</svg>
