<svg width="15" height="12" viewBox="0 0 15 12" fill="none" xmlns="http://www.w3.org/2000/svg">
<path d="M10.75 4.5C10.75 2.4375 8.54688 0.75 5.875 0.75C3.17969 0.75 1 2.4375 1 4.5C1 5.32031 1.32812 6.04688 1.89062 6.65625C1.5625 7.38281 1.04688 7.94531 1.04688 7.94531C1 7.99219 0.976562 8.08594 1 8.15625C1.04688 8.22656 1.09375 8.25 1.1875 8.25C2.03125 8.25 2.73438 7.96875 3.25 7.66406C4 8.03906 4.91406 8.25 5.875 8.25C8.54688 8.25 10.75 6.58594 10.75 4.5ZM13.6094 9.65625C14.1484 9.04688 14.5 8.32031 14.5 7.5C14.5 5.95312 13.2344 4.59375 11.4531 4.03125C11.4766 4.19531 11.5 4.35938 11.5 4.5C11.5 6.98438 8.96875 9 5.875 9C5.61719 9 5.35938 9 5.125 8.97656C5.85156 10.3125 7.58594 11.25 9.625 11.25C10.5859 11.25 11.4766 11.0391 12.2266 10.6641C12.7422 10.9688 13.4453 11.25 14.3125 11.25C14.3828 11.25 14.4531 11.2266 14.4766 11.1562C14.5 11.0859 14.5 10.9922 14.4297 10.9453C14.4297 10.9453 13.9141 10.3828 13.6094 9.65625Z" fill="#F5D06F"/>
</svg>
