<svg width="16" height="14" viewBox="0 0 16 14" fill="none" xmlns="http://www.w3.org/2000/svg">
<path d="M6.00391 1.71875L3.57031 4.125H0.78125C0.398438 4.125 0.125 4.42578 0.125 4.78125V8.71875C0.125 9.10156 0.398438 9.375 0.78125 9.375H3.57031L6.00391 11.8086C6.41406 12.2188 7.125 11.9453 7.125 11.3438V2.18359C7.125 1.58203 6.41406 1.30859 6.00391 1.71875ZM12.375 0.296875C12.0742 0.105469 11.6641 0.1875 11.4453 0.488281C11.2539 0.816406 11.3359 1.22656 11.6367 1.41797C13.4688 2.59375 14.5352 4.61719 14.5352 6.77734C14.5352 8.91016 13.4688 10.9336 11.6367 12.1094C11.3359 12.3008 11.2539 12.7109 11.4453 13.0391C11.6367 13.3125 12.0469 13.4219 12.375 13.2305C14.5625 11.7812 15.875 9.375 15.875 6.75C15.875 4.15234 14.5625 1.74609 12.375 0.296875ZM13.25 6.75C13.25 5.02734 12.3477 3.44141 10.8984 2.48438C10.5977 2.29297 10.1875 2.375 9.99609 2.70312C9.80469 3.00391 9.88672 3.41406 10.1875 3.60547C11.2812 4.28906 11.9375 5.49219 11.9375 6.75C11.9375 8.03516 11.2812 9.23828 10.1875 9.92188C9.88672 10.1133 9.80469 10.5234 9.99609 10.8242C10.1602 11.125 10.5703 11.2344 10.8984 11.043C12.3477 10.0859 13.25 8.5 13.25 6.75ZM9.36719 4.67188C9.03906 4.48047 8.65625 4.58984 8.46484 4.91797C8.30078 5.24609 8.41016 5.62891 8.73828 5.82031C9.06641 6.01172 9.3125 6.36719 9.3125 6.75C9.3125 7.16016 9.06641 7.51562 8.73828 7.70703C8.41016 7.89844 8.30078 8.28125 8.46484 8.60938C8.65625 8.9375 9.03906 9.04688 9.36719 8.85547C10.1328 8.44531 10.625 7.625 10.625 6.75C10.625 5.90234 10.1328 5.08203 9.36719 4.67188Z" fill="#4B545D"/>
</svg>
